PathFileType	4	(X/Y/Z)	/home/nbianco/projects/addbio/data/OpenCap2022/Processed/subject7//results/MarkerData/squats1.trc
DataRate	CameraRate	NumFrames	NumMarkers	Units	OrigDataRate	OrigDataStartFrame	OrigNumFrames
100	100	8	51	m	100	0	1281
Frame#	Time	C7			L.ASIS			L.PSIS			L_5meta			L_HJC			L_HJC_reg			L_Shoulder			L_Sternum			L_ankle			L_calc			L_elbow_lat			L_elbow_med			L_forearm			L_humerus			L_knee			L_sh2			L_sh3			L_shank_antsup			L_thigh1			L_thigh2			L_thigh3			L_thigh4			L_toe			L_wrist_radius			L_wrist_ulna			R_HJC			R_HJC_reg			R_Shoulder			R_Sternum			R_elbow_lat			R_elbow_med			R_forearm			R_humerus			R_wrist_radius			R_wrist_ulna			r.ASIS			r.PSIS			r_5meta			r_ankle			r_calc			r_knee			r_sh2			r_sh3			r_sh4			r_shank_antsup			r_thigh1			r_thigh2			r_thigh3			r_thigh4			r_thigh5			r_toe		
		X1	Y1	Z1	X2	Y2	Z2	X3	Y3	Z3	X4	Y4	Z4	X5	Y5	Z5	X6	Y6	Z6	X7	Y7	Z7	X8	Y8	Z8	X9	Y9	Z9	X10	Y10	Z10	X11	Y11	Z11	X12	Y12	Z12	X13	Y13	Z13	X14	Y14	Z14	X15	Y15	Z15	X16	Y16	Z16	X17	Y17	Z17	X18	Y18	Z18	X19	Y19	Z19	X20	Y20	Z20	X21	Y21	Z21	X22	Y22	Z22	X23	Y23	Z23	X24	Y24	Z24	X25	Y25	Z25	X26	Y26	Z26	X27	Y27	Z27	X28	Y28	Z28	X29	Y29	Z29	X30	Y30	Z30	X31	Y31	Z31	X32	Y32	Z32	X33	Y33	Z33	X34	Y34	Z34	X35	Y35	Z35	X36	Y36	Z36	X37	Y37	Z37	X38	Y38	Z38	X39	Y39	Z39	X40	Y40	Z40	X41	Y41	Z41	X42	Y42	Z42	X43	Y43	Z43	X44	Y44	Z44	X45	Y45	Z45	X46	Y46	Z46	X47	Y47	Z47	X48	Y48	Z48	X49	Y49	Z49	X50	Y50	Z50	X51	Y51	Z51

1	0	-0.258592	1.45479	-0.593567	-0.0841335	0.954492	-0.687187	-0.281068	0.991659	-0.635083	-0.123181	0.0415911	-0.838947	-0.168793	0.883148	-0.677662	-0.156644	0.884791	-0.642427	-0.17984	1.41141	-0.752012	-0.136867	1.36486	-0.602389	-0.241544	0.0994764	-0.801596	-0.296585	0.0566487	-0.750694	-0.225416	1.07615	-0.854356	-0.236538	1.06714	-0.782939	-0.0857278	1.1157	-0.829676	-0.201461	1.18258	-0.837256	-0.198126	0.502432	-0.791262	-0.268171	0.437197	-0.817659	-0.275343	0.31515	-0.825596	-0.180877	0.42197	-0.813571	-0.127457	0.821408	-0.767212	-0.139697	0.683092	-0.796124	-0.23954	0.828163	-0.75802	-0.250967	0.687329	-0.763146	-0.0773823	0.0594364	-0.785866	-0.00128103	1.16597	-0.790555	0.0149622	1.12409	-0.791	-0.169829	0.879836	-0.487022	-0.163477	0.883518	-0.482431	-0.185314	1.41581	-0.419818	-0.141158	1.369	-0.566745	-0.239494	1.09374	-0.311368	-0.26652	1.078	-0.375923	-0.105509	1.12644	-0.329625	-0.209846	1.18084	-0.333926	-0.0228872	1.17296	-0.362495	-0.00820525	1.13078	-0.354735	-0.100761	0.964404	-0.445313	-0.285272	0.990876	-0.536638	-0.139257	0.0396481	-0.304483	-0.257716	0.100516	-0.360475	-0.308108	0.0588168	-0.412275	-0.21904	0.504499	-0.37207	-0.190998	0.345202	-0.368511	-0.258237	0.463324	-0.341562	-0.263766	0.348295	-0.327713	-0.186632	0.460688	-0.370242	-0.0893334	0.780925	-0.455707	-0.095234	0.672026	-0.432668	-0.125447	0.663434	-0.371299	-0.16385	0.802102	-0.373384	-0.172753	0.689047	-0.353597	-0.0920325	0.0618138	-0.353465
2	0.01	-0.258504	1.45488	-0.593361	-0.0844943	0.954443	-0.687026	-0.281483	0.991786	-0.634971	-0.123174	0.0415797	-0.838938	-0.16916	0.883147	-0.677501	-0.156983	0.884861	-0.64229	-0.179801	1.41143	-0.751895	-0.136854	1.3649	-0.602263	-0.241538	0.0994735	-0.8016	-0.296621	0.0566241	-0.750702	-0.225421	1.07622	-0.854366	-0.236545	1.06717	-0.782938	-0.0857247	1.11574	-0.829515	-0.20147	1.18262	-0.837237	-0.19835	0.502446	-0.790656	-0.268261	0.437177	-0.817647	-0.275589	0.315247	-0.825347	-0.180987	0.422039	-0.813508	-0.127818	0.821388	-0.766987	-0.139902	0.683053	-0.795972	-0.239919	0.828017	-0.757743	-0.251159	0.687307	-0.763126	-0.0773979	0.0594584	-0.785808	-0.00128924	1.16583	-0.790319	0.0149584	1.124	-0.790929	-0.170192	0.879945	-0.48686	-0.163642	0.883404	-0.482314	-0.185201	1.41592	-0.419773	-0.141144	1.36907	-0.566733	-0.239377	1.09395	-0.31114	-0.266416	1.07798	-0.375854	-0.105338	1.12657	-0.329389	-0.209717	1.18091	-0.333731	-0.0228173	1.17295	-0.362526	-0.00811633	1.13082	-0.354658	-0.101081	0.964553	-0.445197	-0.285578	0.99089	-0.536596	-0.139289	0.039667	-0.304474	-0.257596	0.10051	-0.36033	-0.308119	0.05881	-0.412275	-0.219238	0.504447	-0.37199	-0.191074	0.345505	-0.368662	-0.258731	0.463481	-0.341403	-0.264069	0.34832	-0.327605	-0.186803	0.460773	-0.370076	-0.0896206	0.780967	-0.455638	-0.095508	0.672029	-0.432607	-0.125691	0.663363	-0.371228	-0.164111	0.802115	-0.373164	-0.173149	0.688929	-0.353671	-0.092038	0.061812	-0.353467
3	0.02	-0.258411	1.45498	-0.593228	-0.0848384	0.954471	-0.686954	-0.281881	0.991871	-0.634931	-0.123178	0.0415751	-0.838959	-0.169509	0.883191	-0.677462	-0.157321	0.884912	-0.642263	-0.179745	1.41146	-0.751764	-0.136823	1.36493	-0.602171	-0.24154	0.0994619	-0.801601	-0.296638	0.0566148	-0.750714	-0.2254	1.07631	-0.854385	-0.236556	1.06718	-0.782925	-0.085696	1.11573	-0.829365	-0.201466	1.18268	-0.837187	-0.198528	0.502432	-0.790698	-0.268367	0.437175	-0.817648	-0.27579	0.315323	-0.825133	-0.181125	0.422074	-0.813496	-0.128214	0.821388	-0.766886	-0.140157	0.683001	-0.795865	-0.240352	0.827866	-0.757456	-0.251416	0.687245	-0.762976	-0.0774196	0.0594523	-0.785837	-0.00125868	1.16571	-0.790144	0.0149967	1.12387	-0.790773	-0.170586	0.879977	-0.486821	-0.163947	0.883323	-0.482273	-0.185054	1.41599	-0.419675	-0.14113	1.36908	-0.566703	-0.239262	1.09416	-0.310751	-0.266282	1.07803	-0.375713	-0.105157	1.12665	-0.329179	-0.209557	1.181	-0.33355	-0.0226671	1.17293	-0.362529	-0.00803432	1.13082	-0.354647	-0.101447	0.964589	-0.445106	-0.285951	0.990894	-0.536637	-0.139299	0.0396608	-0.30447	-0.257591	0.100462	-0.360258	-0.308124	0.058801	-0.412277	-0.219479	0.504485	-0.371833	-0.191175	0.345513	-0.36865	-0.259007	0.463481	-0.341263	-0.264098	0.348418	-0.327388	-0.186965	0.460829	-0.369975	-0.0899179	0.781001	-0.455503	-0.0958225	0.672045	-0.432601	-0.126023	0.663367	-0.371092	-0.164393	0.80209	-0.372986	-0.173478	0.688971	-0.353461	-0.0920466	0.0618005	-0.353476
4	0.03	-0.258309	1.45508	-0.593158	-0.0851181	0.954631	-0.687068	-0.282283	0.991899	-0.634863	-0.123192	0.0415711	-0.838997	-0.169845	0.883317	-0.677506	-0.157689	0.884945	-0.642347	-0.179675	1.41149	-0.751646	-0.136776	1.36496	-0.602091	-0.241551	0.0994451	-0.801602	-0.29664	0.0566107	-0.750727	-0.225359	1.07641	-0.85441	-0.236571	1.06719	-0.782896	-0.0856402	1.11569	-0.829233	-0.201443	1.18273	-0.837128	-0.198709	0.50241	-0.790981	-0.26851	0.437161	-0.8176	-0.275853	0.315282	-0.82507	-0.181311	0.422061	-0.813442	-0.128647	0.821431	-0.766906	-0.14048	0.682984	-0.795829	-0.240804	0.827737	-0.757233	-0.251741	0.687155	-0.76276	-0.0774442	0.05943	-0.785909	-0.00120018	1.16561	-0.790013	0.0150727	1.12373	-0.790534	-0.170945	0.879997	-0.486867	-0.164365	0.883394	-0.482232	-0.184882	1.41605	-0.41953	-0.141119	1.36906	-0.566641	-0.239101	1.09434	-0.310337	-0.266116	1.07812	-0.375488	-0.104967	1.1267	-0.328993	-0.20937	1.18114	-0.333343	-0.0224581	1.17291	-0.362508	-0.00790953	1.13079	-0.354631	-0.101863	0.9646	-0.445031	-0.286378	0.990947	-0.536647	-0.1393	0.0396353	-0.304465	-0.25766	0.100408	-0.36026	-0.308126	0.0587907	-0.412281	-0.219748	0.504573	-0.371648	-0.191286	0.345459	-0.368612	-0.259147	0.463319	-0.341162	-0.263967	0.348559	-0.327143	-0.187132	0.460847	-0.36993	-0.0901946	0.781038	-0.45534	-0.0961629	0.672093	-0.432587	-0.126439	0.663475	-0.37089	-0.164686	0.802069	-0.372877	-0.173748	0.689108	-0.353071	-0.0920549	0.0617939	-0.353479
5	0.04	-0.258203	1.45517	-0.593128	-0.0853894	0.954869	-0.687274	-0.282722	0.991889	-0.634676	-0.123207	0.0415613	-0.839031	-0.170224	0.88349	-0.677492	-0.158127	0.884971	-0.642401	-0.179601	1.41152	-0.751569	-0.136712	1.365	-0.60201	-0.241565	0.0994276	-0.801606	-0.296637	0.0566029	-0.750737	-0.225296	1.0765	-0.854465	-0.236562	1.06721	-0.782906	-0.0855451	1.11563	-0.829091	-0.201396	1.18279	-0.837085	-0.198941	0.5024	-0.791041	-0.268717	0.437097	-0.817405	-0.275848	0.315129	-0.825095	-0.181539	0.421997	-0.813268	-0.129118	0.821516	-0.766986	-0.140873	0.683042	-0.795862	-0.241233	0.827673	-0.757142	-0.252121	0.687087	-0.762591	-0.0774681	0.0594176	-0.785959	-0.00112672	1.16552	-0.78989	0.0151767	1.12363	-0.79025	-0.171258	0.880094	-0.486854	-0.164849	0.883681	-0.482083	-0.184681	1.41611	-0.419363	-0.141105	1.36904	-0.566566	-0.238838	1.09444	-0.310099	-0.265922	1.07826	-0.375093	-0.104763	1.12673	-0.328847	-0.20917	1.18134	-0.333046	-0.0222387	1.17287	-0.362483	-0.00768449	1.13079	-0.354529	-0.102308	0.964701	-0.444936	-0.286838	0.991099	-0.536496	-0.139305	0.0396101	-0.304456	-0.257734	0.100378	-0.360306	-0.30813	0.0587824	-0.412281	-0.21999	0.50466	-0.371509	-0.191369	0.345512	-0.368622	-0.259313	0.46312	-0.341122	-0.263971	0.348565	-0.327103	-0.187287	0.460841	-0.369901	-0.0904423	0.781095	-0.455198	-0.0964997	0.672184	-0.432479	-0.126861	0.663687	-0.370658	-0.16499	0.802133	-0.372801	-0.173989	0.689254	-0.352741	-0.0920655	0.0618099	-0.353466
6	0.05	-0.258093	1.45524	-0.593093	-0.0858305	0.955036	-0.687289	-0.283205	0.991924	-0.634425	-0.123219	0.0415543	-0.839056	-0.170723	0.883622	-0.677319	-0.158656	0.885037	-0.642259	-0.179523	1.41155	-0.751515	-0.136624	1.36501	-0.60194	-0.241575	0.0994105	-0.80161	-0.296631	0.0565955	-0.750739	-0.225184	1.07658	-0.854589	-0.236476	1.06732	-0.783039	-0.0853917	1.11556	-0.828889	-0.201313	1.18284	-0.837052	-0.19921	0.502407	-0.790899	-0.26897	0.436996	-0.817046	-0.275977	0.315011	-0.824992	-0.181762	0.421915	-0.813044	-0.129621	0.821602	-0.767027	-0.14131	0.683156	-0.795936	-0.241655	0.827678	-0.757152	-0.252523	0.687071	-0.7625	-0.0774933	0.0594372	-0.785973	-0.00103163	1.16546	-0.789759	0.0153058	1.12355	-0.78998	-0.171645	0.880274	-0.486679	-0.165379	0.884036	-0.481846	-0.184434	1.4162	-0.4192	-0.141063	1.36903	-0.566527	-0.238492	1.09449	-0.309948	-0.265715	1.07844	-0.374468	-0.104521	1.12676	-0.328729	-0.208965	1.18157	-0.332666	-0.022033	1.17284	-0.362481	-0.0073731	1.1308	-0.354358	-0.102772	0.964896	-0.444812	-0.287321	0.991311	-0.536213	-0.139312	0.0396039	-0.304453	-0.257756	0.100371	-0.360326	-0.308137	0.0587788	-0.412277	-0.220154	0.504737	-0.371434	-0.191391	0.345546	-0.368595	-0.259553	0.463063	-0.34114	-0.264229	0.348348	-0.327356	-0.187379	0.460852	-0.369849	-0.0907186	0.781199	-0.455079	-0.0968345	0.672326	-0.432321	-0.127191	0.663926	-0.370492	-0.16532	0.802303	-0.37265	-0.174238	0.689388	-0.352607	-0.0920888	0.0618409	-0.353452
7	0.06	-0.257951	1.45532	-0.592995	-0.0865046	0.955122	-0.68706	-0.283739	0.992066	-0.634209	-0.123234	0.0415632	-0.839085	-0.171358	0.883724	-0.677078	-0.15926	0.885194	-0.642005	-0.179421	1.4116	-0.751449	-0.136504	1.36503	-0.601869	-0.241585	0.0993983	-0.801606	-0.29663	0.0565912	-0.750732	-0.224998	1.07667	-0.854761	-0.236327	1.06753	-0.783244	-0.0851777	1.1155	-0.82867	-0.201176	1.18291	-0.837021	-0.199496	0.502443	-0.790764	-0.269207	0.436906	-0.816623	-0.276246	0.315004	-0.824745	-0.181963	0.421843	-0.812845	-0.13015	0.821672	-0.766978	-0.141757	0.683308	-0.796043	-0.242137	0.827717	-0.757198	-0.252918	0.687057	-0.762397	-0.0775203	0.0594856	-0.785973	-0.00089844	1.16541	-0.789627	0.0154515	1.12349	-0.789788	-0.172187	0.880464	-0.486436	-0.165953	0.884265	-0.481679	-0.184142	1.4163	-0.419087	-0.14097	1.36904	-0.566526	-0.238152	1.09464	-0.309528	-0.265509	1.07862	-0.373746	-0.104221	1.12683	-0.328559	-0.208725	1.18176	-0.332292	-0.0218217	1.17284	-0.362511	-0.00705678	1.13081	-0.354235	-0.103299	0.965094	-0.444711	-0.287842	0.991497	-0.535929	-0.13931	0.0396171	-0.304463	-0.257711	0.100377	-0.36029	-0.308142	0.0587776	-0.412272	-0.220235	0.504805	-0.37139	-0.191347	0.345528	-0.368545	-0.259754	0.463176	-0.341188	-0.264506	0.348134	-0.327645	-0.187381	0.460891	-0.369791	-0.0910859	0.7814	-0.454948	-0.0972014	0.672554	-0.432255	-0.12741	0.6641	-0.370468	-0.165683	0.802492	-0.372404	-0.174509	0.689512	-0.35258	-0.0921243	0.0618626	-0.353454
8	0.07	-0.257737	1.45541	-0.592831	-0.0872898	0.955253	-0.686851	-0.284364	0.992263	-0.634049	-0.123251	0.0415833	-0.839109	-0.17207	0.883869	-0.676927	-0.159922	0.885413	-0.641856	-0.179278	1.41163	-0.751385	-0.136342	1.36509	-0.601759	-0.241597	0.0993982	-0.801594	-0.296638	0.0565822	-0.750722	-0.224745	1.07676	-0.854949	-0.236162	1.06781	-0.783385	-0.0849139	1.1155	-0.828568	-0.200974	1.18298	-0.837015	-0.199786	0.502492	-0.790637	-0.269385	0.436866	-0.816257	-0.276524	0.315066	-0.824469	-0.182157	0.421772	-0.81265	-0.130713	0.821752	-0.766871	-0.142222	0.683494	-0.796154	-0.242731	0.827754	-0.757282	-0.253317	0.686973	-0.762204	-0.0775418	0.0595342	-0.785973	-0.000715501	1.16537	-0.789489	0.0155923	1.12345	-0.789692	-0.172827	0.880622	-0.486284	-0.166561	0.884362	-0.481644	-0.183842	1.41635	-0.419095	-0.140827	1.36906	-0.566522	-0.237857	1.09493	-0.308723	-0.265295	1.07875	-0.373095	-0.103862	1.12698	-0.328276	-0.208403	1.18188	-0.331962	-0.021567	1.17286	-0.362527	-0.00679511	1.13078	-0.354234	-0.103932	0.965264	-0.444669	-0.288438	0.991618	-0.535731	-0.139302	0.0396352	-0.30448	-0.257666	0.100381	-0.360257	-0.308143	0.058773	-0.412273	-0.220218	0.504872	-0.371361	-0.191255	0.345606	-0.368563	-0.259788	0.463299	-0.341236	-0.264576	0.348103	-0.327756	-0.187303	0.460912	-0.369747	-0.0915435	0.781726	-0.454802	-0.0975976	0.672882	-0.432316	-0.12758	0.66421	-0.370553	-0.166082	0.80264	-0.372188	-0.174791	0.68962	-0.352522	-0.0921552	0.0618722	-0.353464
